<?xml version="1.0" encoding="UTF-8" standalone="no"?>
<!-- Created with Inkscape (http://www.inkscape.org/) -->

<svg
   width="150mm"
   height="150mm"
   viewBox="0 0 150 150"
   version="1.1"
   id="svg5"
   xml:space="preserve"
   inkscape:export-filename="logo192.png"
   inkscape:export-xdpi="32.512001"
   inkscape:export-ydpi="32.512001"
   inkscape:version="1.2.1 (9c6d41e410, 2022-07-14)"
   sodipodi:docname="logo.svg"
   xmlns:inkscape="http://www.inkscape.org/namespaces/inkscape"
   xmlns:sodipodi="http://sodipodi.sourceforge.net/DTD/sodipodi-0.dtd"
   xmlns="http://www.w3.org/2000/svg"
   xmlns:svg="http://www.w3.org/2000/svg"><sodipodi:namedview
     id="namedview7"
     pagecolor="#ffffff"
     bordercolor="#000000"
     borderopacity="0"
     inkscape:showpageshadow="2"
     inkscape:pageopacity="0.0"
     inkscape:pagecheckerboard="0"
     inkscape:deskcolor="#ffffff"
     inkscape:document-units="mm"
     showgrid="false"
     inkscape:zoom="0.44631734"
     inkscape:cx="304.71592"
     inkscape:cy="613.91296"
     inkscape:window-width="2560"
     inkscape:window-height="1377"
     inkscape:window-x="1912"
     inkscape:window-y="-8"
     inkscape:window-maximized="1"
     inkscape:current-layer="layer1" /><defs
     id="defs2" /><g
     inkscape:label="Layer 1"
     inkscape:groupmode="layer"
     id="layer1"
     transform="translate(-3,-3)"><rect
       style="fill:#26a071;fill-opacity:1;stroke:none;stroke-width:2.39038;stroke-dasharray:none;stroke-opacity:0"
       id="rect3167"
       width="150"
       height="150"
       x="3"
       y="3"
       rx="25"
       ry="25" /><path
       d="M 16,131 V 107.77018 L 60.776121,47.273293 52.318441,35.968947 59.283582,31 66.000047,40.192553 72.840804,31 79.681562,35.968947 71.348267,47.273293 116,107.77018 V 131 Z M 66.000047,54.478265 24.45768,110.62734 v 11.92545 H 41.497521 L 66.000047,88.267082 90.502482,122.55279 H 107.54232 V 110.62734 Z M 51.945282,122.55279 H 80.054719 L 66.000047,102.80126 Z M 66.000047,88.267082 90.502482,122.55279 66.000047,88.267082 41.497521,122.55279 Z"
       id="path217"
       style="display:none;fill:#ffffff;stroke:none;stroke-width:2.486;stroke-dasharray:none;stroke-opacity:0" /><path
       d="m 131.15961,85 q -3.68349,0 -6.26194,-2.623161 -2.57843,-2.623141 -2.57843,-6.243831 0,-0.517266 0.11048,-1.256157 0.11047,-0.738911 0.3315,-1.330052 L 101.10231,60.911337 q -1.105053,1.330042 -2.799458,2.142858 -1.694404,0.812816 -3.462472,0.812816 -3.683493,0 -6.261936,-2.586219 Q 86,58.694584 86,54.999999 q 0,-3.694577 2.578444,-6.280785 2.578443,-2.58621 6.261936,-2.58621 1.768068,0 3.388809,0.70197 1.620732,0.701968 2.873121,2.03202 L 122.76122,36.37931 q -0.22102,-0.51724 -0.3315,-1.219212 -0.11048,-0.70197 -0.11048,-1.293104 0,-3.694581 2.57843,-6.280787 Q 127.47612,25 131.15961,25 q 3.68349,0 6.26194,2.586207 2.57843,2.586206 2.57843,6.280787 0,3.694581 -2.57843,6.280788 -2.57845,2.586208 -6.26194,2.586208 -1.76808,0 -3.42564,-0.591134 -1.65757,-0.591132 -2.76262,-1.84729 l -21.65891,11.970443 q 0.14734,0.591132 0.25783,1.403948 0.11049,0.812806 0.11049,1.330042 0,0.517245 -0.11049,1.108376 -0.11049,0.591131 -0.25783,1.256167 l 21.65891,12.266007 q 1.10506,-1.034472 2.65211,-1.699508 1.54707,-0.665026 3.53615,-0.665026 3.68349,0 6.26194,2.586199 Q 140,72.438433 140,76.133008 q 0,3.694575 -2.57845,6.280783 Q 134.8431,85 131.15963,85 Z m 0,-47.142857 q 1.69442,0 2.83628,-1.145321 1.14188,-1.14532 1.14188,-2.844828 0,-1.699507 -1.14188,-2.844827 -1.14186,-1.14532 -2.83628,-1.14532 -1.69439,0 -2.83627,1.14532 -1.14189,1.14532 -1.14189,2.844827 0,1.699508 1.14189,2.844828 1.14188,1.145321 2.83627,1.145321 z M 94.840409,58.990154 q 1.694415,0 2.836295,-1.145329 1.141881,-1.145319 1.141881,-2.844826 0,-1.699508 -1.141881,-2.844828 -1.14188,-1.145319 -2.836295,-1.145319 -1.694394,0 -2.836285,1.145319 -1.14188,1.14532 -1.14188,2.844828 0,1.699507 1.14188,2.844826 1.141891,1.145329 2.836285,1.145329 z m 36.319201,21.132999 q 1.69442,0 2.83628,-1.145329 1.14188,-1.145319 1.14188,-2.844816 0,-1.699508 -1.14188,-2.844817 -1.14186,-1.145319 -2.83628,-1.145319 -1.69439,0 -2.83627,1.145319 -1.14189,1.145309 -1.14189,2.844817 0,1.699497 1.14189,2.844816 1.14188,1.145329 2.83627,1.145329 z m 0,-46.256159 z M 94.840409,54.999999 Z m 36.319201,21.133009 z"
       id="path234"
       style="display:inline;fill:#ffffff;fill-opacity:1;stroke-width:1.47561" /><path
       d="M 16,131 V 108.41936 L 62.315807,44.575271 55.07891,34.629027 59.947337,31 65.99995,39.467737 72.18425,31 76.92109,34.629027 69.81578,44.575271 116,108.41936 V 131 Z M 65.99995,49.682794 21.921026,110.43548 v 14.51613 H 40.868388 L 65.99995,88.930106 91.263099,124.95161 H 110.07898 V 110.43548 Z M 48.236873,124.95161 H 83.763129 L 65.99995,99.413976 Z M 65.99995,88.930106 91.263099,124.95161 65.99995,88.930106 40.868388,124.95161 Z"
       id="path3106"
       style="fill:#ffffff;fill-opacity:1;stroke-width:2.65972" /></g></svg>
